<svg
        xmlns="http://www.w3.org/2000/svg"
        height="192"
        viewBox="0 0 192 192"
        width="192">
    <rect width="192" height="192" rx="20" ry="20"/>
    <path stroke="white" stroke-width="15" d="M 20,140 L 50,110 L 20,80" fill="none" />
    <path fill="white" d="M 133.34375,95.625 H 127.625 q -15.09375,0 -22.78125,5.34375 -7.59375,5.25 -7.59375,15.75 0,9.46875 5.71875,14.71875 5.71875,5.25 15.84375,5.25 14.25,0 22.40625,-9.84375 8.15625,-9.9375 8.25,-27.375 V 95.625 Z M 166.8125,88.5 v 59.90625 h -17.34375 v -15.5625 q -5.53125,9.375 -13.96875,13.875 -8.34375,4.40625 -20.34375,4.40625 -16.03125,0 -25.59375,-9 Q 80,133.03125 80,117.84375 80,100.3125 91.71875,91.21875 103.53125,82.125 126.3125,82.125 h 23.15625 v -2.71875 q -0.0937,-12.5625 -6.375,-18.1875 Q 136.8125,55.5 123.03125,55.5 q -8.8125,0 -17.8125,2.53125 -9,2.53125 -17.53125,7.40625 v -17.25 q 9.5625,-3.65625 18.28125,-5.4375 8.8125,-1.875 17.0625,-1.875 13.03125,0 22.21875,3.84375 9.28125,3.84375 15,11.53125 3.5625,4.6875 5.0625,11.625 1.5,6.84375 1.5,20.625 z" />
</svg>